<?xml version="1.0" encoding="UTF-8"?><svg id="Layer_1" xmlns="http://www.w3.org/2000/svg" viewBox="0 0 520 342.35"><defs><style>.cls-1{fill:#fff;}.cls-1,.cls-2{stroke-width:0px;}.cls-2{fill:#5bebd4;}</style></defs><path class="cls-1" d="m142.68,342.35H0V28.37h139.56c29.52,0,51.95,6.71,67.31,20.12,15.36,13.43,23.03,32.36,23.03,56.8v17.45c0,13.41-3.05,25.12-9.17,35.11-6.11,9.98-14.39,17.07-24.82,21.24,25.34,8.65,38.02,29.22,38.02,61.72v24.16c0,24.45-7.68,43.45-23.04,57.02-15.36,13.57-38.1,20.34-68.21,20.34M49.21,159.86h86.77c14.01,0,25.05-3.35,33.1-10.06,8.05-6.71,12.07-16.33,12.07-28.85v-11.62c0-12.81-4.03-22.51-12.07-29.07-8.05-6.56-19.08-9.84-33.1-9.84H49.21v89.45Zm89.9,40.7H49.21v100.18s89.89,0,89.89,0c14.01,0,25.12-3.42,33.33-10.29,8.19-6.86,12.29-16.69,12.29-29.51v-20.58c0-12.81-4.1-22.66-12.29-29.52-8.21-6.86-19.31-10.29-33.33-10.29"/><polygon class="cls-2" points="408.65 336.15 408.65 274.53 347.04 274.53 347.04 224.81 408.65 224.81 408.66 163.2 458.39 163.2 458.38 224.81 520 224.81 520 274.54 458.38 274.53 458.38 336.15 408.65 336.15"/><polygon class="cls-2" points="254.58 274.53 254.58 223.76 254.6 215.23 254.6 193.27 458.39 0 458.39 68.54 304.31 214.67 304.3 274.53 254.58 274.53"/></svg>